<?xml version="1.0" standalone="no"?>
<!DOCTYPE svg PUBLIC "-//W3C//DTD SVG 20010904//EN"
 "http://www.w3.org/TR/2001/REC-SVG-20010904/DTD/svg10.dtd">
<svg version="1.0" xmlns="http://www.w3.org/2000/svg"
 width="225.000000pt" height="225.000000pt" viewBox="0 0 225.000000 225.000000"
 preserveAspectRatio="xMidYMid meet">
<metadata>
Created by potrace 1.14, written by Peter Selinger 2001-2017
</metadata>
<g transform="translate(0.000000,225.000000) scale(0.100000,-0.100000)"
fill="#000000" stroke="none">
<path d="M888 1487 c-124 -111 -241 -216 -260 -232 -18 -17 -69 -61 -113 -99
-44 -38 -87 -76 -96 -85 -9 -9 -49 -45 -90 -81 -117 -104 -282 -251 -303 -270
-18 -18 -17 -20 40 -89 32 -39 61 -71 64 -71 4 0 40 27 81 60 41 34 90 73 109
88 19 14 62 49 95 77 33 28 68 56 77 64 15 11 28 3 105 -63 48 -41 117 -100
153 -130 l65 -55 73 72 72 72 78 -78 c42 -42 82 -77 87 -77 5 0 45 35 87 77
l78 78 72 -72 73 -72 65 55 c36 30 105 89 153 130 77 66 90 74 105 63 9 -8 44
-36 77 -64 33 -28 76 -63 95 -77 19 -15 68 -54 109 -88 41 -33 77 -60 81 -60
3 0 32 32 64 71 57 69 58 71 40 89 -21 19 -186 166 -303 270 -41 36 -81 72
-90 81 -9 9 -52 47 -96 84 -44 38 -82 72 -85 75 -20 23 -521 460 -527 459 -5
0 -110 -91 -235 -202z"/>
</g>
</svg>
